<svg width="32" height="32" viewBox="0 0 32 32" fill="none" xmlns="http://www.w3.org/2000/svg">
<path d="M0 1C0 0.447715 0.447715 0 1 0H31C31.5523 0 32 0.447715 32 1V31C32 31.5523 31.5523 32 31 32H1C0.447715 32 0 31.5523 0 31V1Z" fill="#F5F5F5"/>
<path d="M11.3946 14.9896V14.9626C11.6101 14.5981 11.7583 14.2876 11.8257 14.0041C11.893 13.7341 11.9334 13.3561 11.9334 12.8837V12.4247H8V12.1952L12.3375 5.108H15.7591L8.72741 11.8982H11.9334V9.5628H14.8969V11.8982H16.2709L16.1093 12.4247H14.8969V12.8837C14.8969 13.3696 14.9374 13.7476 15.0047 14.0176C15.0721 14.2876 15.2068 14.5981 15.4358 14.9626V14.9896H11.3946Z" fill="#1F1E1D"/>
<path d="M24.7754 11.3042C24.8158 11.5067 24.8293 11.7092 24.8293 11.9387C24.8293 12.1952 24.8023 12.4247 24.7484 12.6542C24.6946 12.8837 24.6137 13.0861 24.5194 13.2886C24.4252 13.4911 24.3039 13.6666 24.1557 13.8286C24.0076 13.9906 23.8324 14.1391 23.6439 14.2741C23.4553 14.4091 23.2532 14.5306 23.0242 14.6251C22.7952 14.7331 22.5527 14.8141 22.2968 14.8816C22.0409 14.9491 21.758 15.0031 21.4751 15.0436C21.1922 15.0841 20.8824 15.0976 20.5726 15.0976C19.9933 15.0976 19.441 15.0436 18.9426 14.9221C18.4307 14.8006 18.0266 14.6656 17.7437 14.4901L17.3935 11.7497L17.6225 11.6957C18.1479 12.5732 18.5924 13.2751 18.983 13.8151C19.3737 14.3551 19.8182 14.6251 20.3301 14.6251C20.815 14.6251 21.2057 14.3821 21.5155 13.9096C21.8253 13.4371 21.9735 12.7892 21.9735 11.9522C21.9735 11.1017 21.8253 10.4673 21.5155 10.0488C21.2057 9.6303 20.7746 9.42781 20.2358 9.42781C19.926 9.42781 19.6296 9.4818 19.3737 9.5898C19.1177 9.71129 18.8753 9.83279 18.6463 9.98128L18.4577 9.73829L21.7041 7.09241H17.8515L18.7406 5H24.7215V5.22949L20.2089 8.87433C20.3301 8.86083 20.4513 8.83383 20.586 8.82033C20.7207 8.80683 20.8554 8.80683 21.0036 8.80683C21.1787 8.80683 21.3673 8.82033 21.5424 8.83383C21.7176 8.84733 21.9061 8.87433 22.0813 8.91483C22.2564 8.95533 22.445 9.00932 22.6201 9.06332C22.7952 9.13082 22.9569 9.19832 23.1185 9.26581C23.2802 9.34681 23.4418 9.44131 23.59 9.5358C23.7382 9.6438 23.8729 9.75179 23.9941 9.87329C24.1153 9.99478 24.2366 10.1298 24.3443 10.2783C24.4386 10.4268 24.5329 10.5888 24.6003 10.7642C24.6676 10.9397 24.735 11.1152 24.7754 11.3042Z" fill="#1F1E1D"/>
<path d="M10.5902 28L10.5028 27.7353C10.7651 27.6471 11.0129 27.5442 11.246 27.4265C11.4792 27.3236 11.6978 27.1913 11.9018 27.0589C12.1058 26.9266 12.2953 26.7648 12.4702 26.6031C12.6305 26.4413 12.7908 26.2796 12.9365 26.1031C13.0822 25.9267 13.2134 25.7355 13.3446 25.5443C13.4611 25.3532 13.5632 25.1473 13.6652 24.9415C13.7672 24.7356 13.8546 24.5297 13.9275 24.3092C14.0004 24.0886 14.0732 23.8827 14.1315 23.6622C14.1898 23.4416 14.2335 23.2357 14.2772 23.0152C14.1169 23.324 13.8692 23.5887 13.5194 23.8092C13.1697 24.0445 12.7033 24.1621 12.135 24.1621C11.9164 24.1621 11.6978 24.1474 11.4792 24.1033C11.2606 24.0592 11.0566 24.0004 10.8671 23.9269C10.6777 23.8533 10.4882 23.7504 10.3133 23.6328C10.1385 23.5298 9.97817 23.3975 9.83244 23.2357C9.67213 23.0887 9.54097 22.927 9.42439 22.7358C9.29323 22.5593 9.19122 22.3682 9.10378 22.1476C9.01634 21.9271 8.95805 21.7065 8.91433 21.4565C8.87061 21.2212 8.84146 20.9713 8.84146 20.6919C8.84146 20.4272 8.87061 20.1772 8.91433 19.9419C8.95805 19.7067 9.03091 19.4714 9.13292 19.2508C9.22036 19.0303 9.33695 18.8244 9.46811 18.6332C9.59926 18.4421 9.745 18.2656 9.9053 18.1039C10.0656 17.9421 10.2551 17.7804 10.4445 17.6481C10.634 17.5157 10.8526 17.3834 11.0712 17.2804C11.2897 17.1775 11.5083 17.0746 11.7561 17.0011C12.0038 16.9275 12.2516 16.8834 12.5139 16.8393C12.7616 16.7952 13.024 16.7805 13.2863 16.7805C13.5923 16.7805 13.8692 16.8099 14.1461 16.854C14.4084 16.8981 14.6561 16.9716 14.9039 17.0599C15.1516 17.1481 15.3702 17.251 15.5888 17.3834C15.8074 17.5157 15.9969 17.6775 16.1863 17.8392C16.3612 18.001 16.5215 18.1921 16.6818 18.3833C16.8275 18.5744 16.9587 18.7803 17.0753 19.0009C17.1773 19.2214 17.2793 19.4567 17.3522 19.7067C17.425 19.9567 17.4833 20.2066 17.527 20.4566C17.5708 20.7213 17.5853 20.986 17.5853 21.2654C17.5853 21.4565 17.5708 21.6624 17.5562 21.8535C17.5416 22.0594 17.4979 22.2653 17.4542 22.4858C17.4105 22.7064 17.3522 22.9123 17.2793 23.1328C17.2064 23.3534 17.119 23.5592 17.017 23.7798C16.915 24.0004 16.7838 24.2209 16.6527 24.4415C16.5215 24.6621 16.3612 24.8679 16.1863 25.0738C16.0114 25.2797 15.822 25.4855 15.6034 25.6767C15.3848 25.8826 15.1516 26.0737 14.8893 26.2649C14.627 26.456 14.3501 26.6325 14.0441 26.7942C13.738 26.956 13.4174 27.1177 13.0531 27.2648C12.6888 27.4118 12.3099 27.5442 11.9018 27.6618C11.4938 27.7941 11.0566 27.8971 10.5902 28ZM12.2661 18.0892C12.0621 18.6332 11.9601 19.3832 11.9601 20.3684C11.9601 21.383 12.0767 22.0888 12.2953 22.5152C12.5139 22.9417 12.8054 23.1475 13.1988 23.1475C13.4466 23.1475 13.6797 23.074 13.8983 22.9123C14.1169 22.7505 14.2918 22.5152 14.3938 22.2064C14.423 21.9565 14.4375 21.7212 14.4521 21.4859C14.4667 21.2653 14.4667 21.0448 14.4667 20.8242C14.4667 20.5742 14.4667 20.339 14.4521 20.1184C14.4375 19.8978 14.423 19.6773 14.4084 19.4567C14.3793 19.2508 14.3501 19.045 14.3064 18.8538C14.2627 18.6627 14.2189 18.4862 14.1752 18.3245C14.1169 18.1627 14.0586 18.0304 14.0004 17.898C13.9275 17.7657 13.8546 17.6628 13.7672 17.5745C13.6797 17.4863 13.5923 17.4128 13.4903 17.3687C13.3883 17.3246 13.2717 17.2951 13.1551 17.2951C12.7616 17.2951 12.4556 17.5598 12.2661 18.0892Z" fill="#1F1E1D"/>
<path d="M23.9878 27.9191H19.2807V27.8897C19.6159 27.478 19.8345 27.1104 19.9365 26.7869C20.0385 26.4781 20.0822 26.037 20.0822 25.4929V19.5523H18.7998V19.3023C19.5576 19.0082 20.2862 18.67 20.9857 18.273C21.6853 17.8907 22.341 17.4201 22.9531 16.8614H23.1717V25.4929C23.1717 25.6252 23.1717 25.7576 23.1863 25.8752C23.1863 26.0075 23.2009 26.1252 23.2154 26.2281C23.23 26.331 23.2446 26.434 23.2591 26.5222C23.2737 26.6251 23.3029 26.7134 23.332 26.8016C23.3612 26.8898 23.3903 26.978 23.434 27.0663C23.4777 27.1545 23.5215 27.2427 23.5798 27.3309C23.6235 27.4192 23.6818 27.5074 23.7546 27.5956C23.8275 27.6986 23.9004 27.7868 23.9878 27.8897V27.9191Z" fill="#1F1E1D"/>
</svg>
